<?xml version="1.0" standalone="no"?>
<!DOCTYPE svg PUBLIC "-//W3C//DTD SVG 20010904//EN"
 "http://www.w3.org/TR/2001/REC-SVG-20010904/DTD/svg10.dtd">
<svg version="1.0" xmlns="http://www.w3.org/2000/svg"
 width="1024.000000pt" height="1024.000000pt" viewBox="0 0 1024.000000 1024.000000"
 preserveAspectRatio="xMidYMid meet">
<metadata>
Created by potrace 1.11, written by Peter Selinger 2001-2013
</metadata>
<g transform="translate(0.000000,1024.000000) scale(0.100000,-0.100000)"
fill="#000000" stroke="none">
<path d="M6778 8955 c-2 -2 -33 -6 -68 -9 -36 -3 -78 -8 -95 -11 -16 -3 -46
-8 -65 -11 -19 -4 -44 -8 -55 -9 -52 -8 -304 -75 -345 -92 -8 -3 -19 -7 -25
-9 -32 -8 -215 -78 -270 -103 -37 -17 -68 -31 -71 -31 -10 0 -219 -105 -222
-112 -2 -5 -9 -8 -16 -8 -6 0 -28 -11 -49 -25 -20 -14 -37 -24 -37 -21 0 15
-472 -297 -526 -349 -6 -5 -26 -22 -45 -37 -102 -79 -111 -88 -93 -85 10 2 26
7 34 10 98 38 514 183 550 192 8 2 27 8 43 14 15 6 27 8 27 5 0 -2 9 0 21 6
11 6 29 13 40 16 23 5 36 8 114 30 33 9 67 18 75 20 8 2 44 11 80 19 36 9 74
18 85 21 11 2 31 6 45 9 14 3 39 7 55 10 17 2 41 7 55 10 39 8 73 14 115 20
20 2 54 7 74 10 247 37 565 37 788 0 64 -10 191 -38 213 -47 14 -5 34 -12 45
-14 29 -5 227 -85 245 -98 8 -6 41 -25 72 -41 32 -17 58 -33 58 -37 0 -5 6 -8
13 -8 6 0 24 -10 39 -23 15 -12 44 -33 64 -47 38 -26 248 -230 297 -287 15
-18 27 -37 27 -42 0 -5 4 -11 8 -13 4 -1 23 -25 42 -53 19 -27 37 -52 40 -55
28 -28 171 -304 209 -405 13 -33 27 -69 32 -80 9 -21 50 -142 53 -160 2 -5 8
-30 16 -55 17 -59 49 -197 55 -235 3 -16 7 -41 10 -55 7 -32 14 -81 21 -145 2
-27 8 -72 11 -100 14 -110 7 -444 -10 -555 -3 -14 -8 -45 -11 -70 -4 -25 -12
-62 -17 -83 -6 -21 -12 -50 -14 -65 -2 -15 -16 -76 -30 -137 -14 -60 -27 -119
-30 -130 -2 -11 -4 -21 -6 -22 -1 -2 -2 -6 -3 -10 -1 -5 -6 -24 -11 -43 -4
-19 -9 -42 -10 -50 -1 -8 -5 -22 -8 -30 -3 -8 -15 -53 -25 -100 -11 -47 -35
-141 -52 -209 -17 -68 -33 -131 -36 -140 -6 -27 -44 -175 -48 -191 -6 -22 -55
-213 -75 -292 -9 -37 -21 -72 -26 -77 -6 -5 -30 -12 -55 -16 -24 -4 -48 -8
-51 -11 -4 -2 -24 -6 -44 -10 -21 -3 -47 -8 -59 -10 -11 -2 -34 -7 -51 -10
-16 -3 -75 -14 -130 -24 -55 -10 -116 -22 -135 -25 -19 -3 -46 -7 -60 -10 -47
-8 -175 -27 -205 -30 -16 -2 -52 -8 -80 -13 -27 -5 -57 -10 -65 -10 -17 -1
-83 -10 -120 -17 -14 -2 -50 -7 -80 -10 -30 -3 -66 -8 -80 -10 -24 -4 -87 -11
-180 -20 -25 -3 -65 -7 -90 -10 -65 -7 -156 -15 -225 -21 -33 -2 -85 -6 -115
-9 -30 -2 -109 -7 -175 -11 l-120 -7 0 542 0 541 -305 0 -305 0 0 -540 c0
-297 -2 -541 -5 -541 -3 -1 -140 -2 -305 -3 l-300 -2 0 543 0 543 -305 0 -305
0 0 -540 c0 -358 -3 -540 -10 -541 -16 -1 -106 3 -150 7 -22 1 -85 6 -139 9
-55 4 -113 8 -130 10 -17 1 -62 6 -101 9 -96 10 -176 18 -280 31 -16 2 -61 6
-100 10 -38 4 -81 9 -95 11 -14 3 -41 7 -60 9 -19 2 -51 7 -70 11 -19 3 -51 8
-70 9 -19 2 -48 6 -65 9 -16 3 -48 8 -70 10 -22 3 -51 8 -65 11 -14 3 -45 8
-70 11 -25 3 -54 8 -65 10 -11 2 -47 9 -80 14 -33 5 -71 12 -85 15 -14 3 -50
9 -80 15 -30 6 -66 12 -80 15 -14 3 -41 8 -60 11 -72 13 -120 23 -150 29 -64
15 -90 20 -147 31 -41 8 -47 16 -62 94 -7 36 -15 74 -17 85 -2 11 -8 45 -14
75 -6 30 -12 66 -15 80 -6 30 -45 263 -51 305 -2 17 -6 39 -8 51 -2 12 -7 45
-11 75 -3 30 -8 72 -11 94 -12 87 -23 186 -29 260 -2 28 -6 82 -10 122 -21
244 -21 576 0 818 2 22 4 42 6 45 1 3 1 9 0 14 -3 12 29 225 39 266 5 19 11
51 14 70 8 51 49 194 81 280 15 41 32 90 39 108 6 17 14 32 18 32 5 0 8 6 8
14 0 22 122 236 155 272 5 6 21 26 35 44 58 78 191 202 285 265 128 86 377
191 499 211 21 3 48 8 60 10 124 27 368 22 504 -11 12 -3 30 -7 40 -9 14 -3
90 -24 112 -31 7 -2 34 -13 125 -48 85 -33 238 -109 320 -160 104 -64 304
-199 329 -222 15 -14 30 -25 34 -25 4 0 21 -13 39 -28 17 -15 46 -38 64 -52
18 -14 37 -29 43 -35 6 -5 38 -32 71 -59 33 -28 67 -57 76 -65 9 -9 41 -38 72
-64 31 -27 78 -69 104 -94 26 -24 69 -61 96 -81 26 -20 47 -40 47 -44 0 -4 6
-8 13 -8 7 0 23 -10 37 -23 14 -13 48 -38 75 -57 28 -18 52 -37 55 -41 9 -13
298 -199 309 -199 6 0 11 -3 11 -7 0 -5 19 -17 43 -28 23 -11 44 -22 47 -25 3
-3 16 -11 30 -18 14 -6 32 -16 40 -22 28 -17 212 -100 224 -100 7 0 16 -3 20
-7 4 -5 11 -8 14 -9 4 0 24 -8 46 -17 21 -9 42 -17 47 -17 5 0 17 -4 27 -9 13
-7 83 -29 112 -36 3 0 39 -8 80 -18 100 -22 125 -27 190 -35 72 -9 283 -8 340
2 274 46 576 205 875 459 66 57 282 272 359 357 104 117 119 213 42 264 -44
28 -81 15 -201 -74 -123 -90 -171 -123 -230 -154 -27 -15 -57 -31 -65 -36 -78
-47 -290 -118 -405 -135 -22 -4 -51 -9 -65 -12 -58 -12 -379 -11 -475 2 -172
23 -339 58 -469 96 -38 12 -76 22 -85 24 -36 7 -157 48 -168 58 -7 5 -13 7
-13 3 0 -3 -19 1 -42 10 -102 37 -197 74 -223 85 -11 4 -49 20 -85 35 -36 14
-76 31 -90 37 -14 6 -27 11 -30 12 -3 0 -39 17 -80 36 -41 19 -96 44 -122 55
-27 10 -48 22 -48 27 0 4 -5 7 -10 7 -16 0 -144 63 -152 75 -4 5 -8 6 -8 1 0
-5 -6 -4 -12 2 -7 6 -58 34 -113 62 -55 28 -125 67 -156 86 -31 19 -62 34 -68
34 -6 0 -11 3 -11 8 0 4 -23 18 -50 31 -28 14 -50 29 -50 33 0 4 -5 8 -10 8
-24 0 -520 330 -528 352 -2 4 -8 8 -14 8 -5 0 -15 6 -23 13 -7 6 -28 23 -46
37 -18 14 -38 31 -45 38 -7 6 -16 12 -20 12 -4 0 -17 9 -28 19 -48 45 -220
122 -336 151 -25 6 -52 13 -60 17 -8 3 -31 6 -50 8 -19 2 -55 7 -80 11 -25 4
-99 7 -165 6 -165 -1 -193 -2 -250 -14 -27 -5 -63 -11 -80 -13 -41 -4 -168
-36 -180 -46 -6 -4 -22 -10 -35 -12 -100 -19 -397 -182 -504 -276 -87 -77
-153 -139 -170 -160 -11 -14 -31 -36 -45 -50 -38 -41 -124 -160 -166 -231 -21
-36 -46 -77 -57 -92 -10 -15 -18 -30 -18 -33 0 -3 -15 -35 -32 -72 -18 -38
-33 -70 -34 -73 -1 -5 -19 -52 -31 -80 -3 -8 -7 -17 -8 -20 -1 -3 -11 -36 -24
-75 -12 -38 -24 -77 -26 -85 -1 -8 -8 -35 -15 -60 -14 -51 -11 -40 -38 -180
-11 -58 -23 -134 -27 -170 -4 -36 -9 -72 -10 -81 -3 -17 -11 -117 -22 -274 -6
-101 -6 -473 1 -585 18 -280 23 -347 41 -480 2 -19 7 -55 10 -80 3 -25 8 -58
11 -75 3 -16 7 -46 9 -65 2 -19 6 -46 10 -60 5 -25 7 -36 20 -135 4 -27 9 -53
11 -56 2 -4 6 -24 9 -45 4 -22 10 -54 15 -73 5 -19 7 -38 4 -43 -3 -4 0 -8 6
-8 6 0 9 -4 6 -9 -3 -4 -1 -23 5 -42 5 -19 12 -49 15 -67 3 -18 11 -56 19 -85
7 -29 12 -54 10 -56 -9 -8 -577 146 -660 180 -22 9 -201 67 -225 73 -30 8
-305 108 -345 126 -11 5 -51 21 -90 35 -38 15 -83 33 -100 40 -95 42 -129 55
-132 51 -2 -2 24 -20 59 -40 35 -20 83 -50 108 -66 25 -16 60 -37 77 -47 18
-9 33 -20 33 -25 0 -4 4 -8 10 -8 5 0 41 -20 79 -44 426 -274 799 -469 1191
-625 l106 -42 19 -67 c11 -37 20 -71 21 -77 10 -44 201 -574 239 -660 8 -16
38 -89 69 -160 121 -289 369 -785 476 -955 5 -8 19 -34 32 -58 12 -24 25 -45
29 -47 3 -2 -16 60 -43 138 -27 78 -50 149 -52 157 -3 8 -31 98 -64 200 -58
178 -125 390 -127 400 -1 3 -12 39 -25 80 -13 41 -25 82 -26 91 -2 9 -16 54
-31 100 -15 46 -26 88 -25 92 1 4 -2 16 -7 26 -6 10 -12 29 -14 42 -3 14 -14
56 -25 94 -11 39 -24 86 -28 105 -11 47 -11 50 -14 53 -1 1 -3 9 -5 17 -2 8
-13 51 -25 95 -11 44 -22 87 -23 95 -1 8 -6 21 -10 28 -5 6 -6 12 -4 12 3 0
-1 20 -9 45 l-13 45 27 -6 c15 -4 36 -10 47 -14 11 -4 22 -8 25 -8 3 0 12 -3
20 -6 17 -6 129 -36 245 -66 84 -21 322 -76 365 -84 14 -2 36 -7 50 -10 14 -3
39 -8 55 -11 17 -3 77 -14 135 -25 58 -11 121 -22 140 -24 54 -8 100 -16 155
-26 28 -6 71 -12 98 -15 26 -2 62 -6 80 -9 55 -9 138 -19 242 -30 70 -8 142
-15 195 -21 25 -3 74 -8 110 -11 36 -2 79 -7 95 -9 17 -2 44 -4 60 -4 l30 -1
0 -507 0 -508 305 0 305 0 1 480 c1 264 2 485 3 491 1 7 96 10 303 10 l303 -1
0 -490 0 -490 305 0 305 0 0 508 0 507 35 1 c19 0 44 2 55 4 11 2 58 7 105 10
47 3 95 7 107 9 12 3 53 7 90 11 37 3 86 9 108 12 22 3 54 6 70 8 17 1 49 5
73 9 23 3 61 8 85 11 23 3 53 8 67 10 14 2 48 7 75 10 28 3 57 8 65 10 8 2 35
6 60 9 25 3 56 8 70 11 14 3 39 7 55 10 17 2 41 6 55 9 13 3 42 8 65 12 22 3
72 12 110 21 39 8 81 17 95 19 13 3 56 12 95 20 38 9 77 17 85 19 8 1 35 8 60
15 25 7 54 14 65 16 49 9 63 13 116 28 31 9 67 19 80 22 77 18 73 19 65 -7 -8
-28 -13 -50 -23 -99 -10 -48 -10 -50 -13 -52 -1 -2 -4 -12 -5 -23 -2 -11 -22
-96 -45 -190 -22 -93 -43 -179 -45 -190 -5 -30 -15 -74 -26 -125 -6 -25 -13
-56 -15 -70 -3 -14 -10 -45 -15 -70 -6 -25 -13 -56 -15 -70 -3 -14 -10 -45
-15 -70 -6 -25 -13 -56 -15 -70 -2 -14 -7 -38 -11 -55 -9 -40 -8 -34 -18 -90
-4 -27 -9 -54 -11 -60 -1 -5 -5 -28 -8 -50 -4 -22 -9 -48 -12 -57 -7 -23 -13
-55 -20 -108 -3 -25 -8 -54 -10 -65 -3 -11 -7 -36 -10 -55 -2 -19 -7 -46 -9
-60 -3 -14 -7 -41 -10 -60 -3 -19 -7 -46 -10 -60 -3 -14 -7 -47 -11 -75 -3
-27 -7 -57 -9 -65 -5 -28 -16 -115 -20 -160 -3 -25 -6 -58 -8 -75 -20 -150
-30 -291 -21 -283 6 7 20 61 29 114 3 18 22 90 41 160 19 71 36 137 39 147 2
10 19 64 36 120 18 56 34 107 35 112 4 18 159 468 171 495 3 8 7 17 7 20 2 6
45 127 56 155 7 19 17 45 51 135 8 19 14 37 15 40 0 3 4 14 9 25 4 11 27 70
50 130 24 61 46 119 50 130 5 11 9 25 10 30 2 6 19 53 40 105 20 52 49 129 65
170 15 41 31 84 36 95 4 11 8 22 9 25 1 3 5 12 8 20 17 38 117 320 117 328 0
13 43 40 76 48 16 4 34 10 39 13 6 4 37 17 70 30 33 13 83 34 110 46 28 12 88
39 135 60 47 21 91 42 98 48 6 5 12 6 12 1 0 -5 4 -4 8 1 4 6 63 38 132 73 69
35 132 68 140 73 58 35 136 77 143 77 5 0 23 12 42 26 18 14 37 26 40 26 4 0
25 13 48 29 23 15 47 30 52 32 16 6 329 202 335 210 3 3 23 16 45 28 22 12 60
35 85 51 25 16 55 34 67 39 11 5 24 15 29 22 4 7 3 10 -2 7 -24 -14 -130 -60
-239 -102 -66 -26 -129 -52 -140 -57 -12 -6 -27 -11 -35 -13 -17 -3 -46 -14
-75 -27 -23 -10 -76 -28 -305 -103 -281 -92 -746 -223 -756 -213 -3 2 4 31 14
63 21 62 64 202 68 219 2 6 5 19 8 30 2 11 11 40 20 65 8 25 29 99 46 165 40
157 40 156 46 185 3 14 11 50 19 80 18 71 63 295 69 340 3 19 5 35 6 35 3 0
15 72 25 160 3 22 7 49 10 60 5 24 18 161 19 193 0 12 2 22 6 22 6 0 13 177
13 365 1 226 -14 412 -49 615 -2 14 -7 41 -10 60 -3 19 -8 44 -11 55 -8 23 -9
29 -18 74 -3 19 -8 37 -10 41 -2 3 -6 19 -9 34 -5 26 -50 174 -63 206 -3 8 -7
20 -9 25 -1 6 -14 41 -29 80 -99 260 -270 553 -448 770 -44 54 -223 235 -272
275 -61 51 -173 130 -183 130 -6 0 -12 3 -14 8 -4 9 -54 40 -90 55 -16 6 -28
15 -28 19 0 4 -8 8 -18 8 -10 0 -26 6 -37 14 -18 12 -200 83 -235 92 -8 2 -40
10 -70 19 -30 8 -70 17 -87 20 -18 3 -48 7 -65 10 -18 3 -44 7 -58 11 -28 7
-416 15 -422 9z"/>
</g>
</svg>
