<svg width="402" height="286" viewBox="0 0 402 286" fill="none" xmlns="http://www.w3.org/2000/svg">
<ellipse cx="202.675" cy="139.387" rx="117.25" ry="117.419" fill="#2C53DE"/>
<circle cx="202.5" cy="135.5" r="117.5" fill="#4067F2"/>
<ellipse cx="345.888" cy="36.9031" rx="19.2625" ry="19.2903" fill="#D9E1FF"/>
<ellipse cx="86.6814" cy="252.032" rx="12.1438" ry="12.1613" fill="#D9E1FF"/>
<ellipse cx="98.8248" cy="11.7419" rx="9.2125" ry="9.22581" fill="#D9E1FF"/>
<ellipse cx="392.788" cy="189.549" rx="9.2125" ry="9.22581" fill="#D9E1FF"/>
<ellipse cx="56.95" cy="232.322" rx="6.7" ry="6.70968" fill="#E8EDFF"/>
<ellipse cx="313.225" cy="279.29" rx="6.7" ry="6.70968" fill="#E8EDFF"/>
<ellipse cx="74.5376" cy="41.0969" rx="4.1875" ry="4.19355" fill="#E8EDFF"/>
<ellipse cx="327.462" cy="248.258" rx="4.1875" ry="4.19355" fill="#E8EDFF"/>
<ellipse cx="4.1875" cy="145.935" rx="4.1875" ry="4.19355" fill="#E8EDFF"/>
<ellipse cx="66.1624" cy="197.097" rx="2.5125" ry="2.51613" fill="#E8EDFF"/>
<ellipse cx="343.375" cy="98.9678" rx="2.5125" ry="2.51613" fill="#E8EDFF"/>
<ellipse cx="271.35" cy="2.51613" rx="2.5125" ry="2.51613" fill="#E8EDFF"/>
<ellipse cx="26.8001" cy="281.807" rx="2.5125" ry="2.51613" fill="#E8EDFF"/>
<ellipse cx="362.638" cy="279.291" rx="2.5125" ry="2.51613" fill="#E8EDFF"/>
<ellipse cx="56.95" cy="14.2583" rx="2.5125" ry="2.51613" fill="#E8EDFF"/>
<ellipse cx="378.55" cy="77.1613" rx="6.7" ry="6.70968" fill="#E8EDFF"/>
<path d="M278.983 132.05C275.394 123.709 263.908 121.849 256.55 118.608C254.636 117.768 252.542 118.008 251.405 119.988C250.448 121.609 250.867 124.369 252.781 125.149C256.251 126.649 259.9 127.789 263.43 129.23C266.301 130.37 270.249 131.99 271.924 134.75C272.104 134.99 272.164 135.11 272.223 135.29C272.164 135.35 272.164 135.41 272.104 135.53C271.864 135.89 271.386 136.251 271.027 136.491C269.591 137.451 268.036 138.231 266.54 139.131C263.788 140.811 261.276 142.851 258.823 145.012C257.627 144.172 256.191 143.751 254.636 143.751C250.568 143.751 247.218 147.052 247.218 151.192C247.218 155.273 250.508 158.633 254.636 158.633C258.345 158.633 261.396 155.933 261.934 152.393C263.669 150.712 265.463 149.092 267.378 147.652C269.412 146.152 271.625 145.072 273.779 143.691C278.026 141.111 281.197 137.151 278.983 132.05Z" fill="white"/>
<path d="M150.067 143.751C148.511 143.751 147.076 144.231 145.879 145.011C143.486 142.851 140.974 140.811 138.162 139.131C136.667 138.23 135.111 137.45 133.675 136.49C133.316 136.25 132.898 135.89 132.599 135.53C132.539 135.41 132.479 135.35 132.479 135.29C132.539 135.11 132.599 134.99 132.778 134.75C134.513 131.99 138.401 130.369 141.273 129.229C144.802 127.789 148.451 126.649 151.921 125.149C153.835 124.309 154.194 121.608 153.297 119.988C152.16 118.068 150.007 117.828 148.152 118.608C140.794 121.848 129.308 123.649 125.719 132.05C123.506 137.15 126.736 141.111 130.864 143.751C133.017 145.071 135.231 146.211 137.265 147.712C139.179 149.092 140.974 150.772 142.709 152.452C143.247 155.993 146.298 158.693 150.007 158.693C154.075 158.693 157.425 155.393 157.425 151.252C157.485 147.112 154.135 143.751 150.067 143.751Z" fill="white"/>
<path d="M198.463 81.6433C180.636 81.9433 155.272 71.922 146.837 92.0246C138.402 112.127 154.674 161.094 162.151 178.316C169.689 195.598 173.398 201.239 179.021 201.239C184.644 201.239 194.335 162.654 206.539 161.994C218.743 161.394 223.11 200.279 235.972 198.058C248.774 195.838 255.354 152.212 256.61 128.389C257.866 104.566 256.61 80.3831 239.74 76.6026C222.871 72.8222 216.29 81.2832 198.463 81.6433Z" fill="white"/>
<path d="M196.848 133.009L217.426 130.909C217.426 130.909 216.409 139.31 207.975 140.15C199.599 140.99 196.848 133.009 196.848 133.009Z" fill="#F16A6D"/>
<path d="M244.047 78.1626C246.261 86.6837 250.448 105.586 250.927 129.409C251.585 161.993 244.227 179.156 234.894 179.696C227.536 180.116 222.392 173.755 218.324 174.655C223.528 185.576 228.194 199.378 235.971 198.058C248.773 195.838 255.354 152.212 256.61 128.389C257.746 106.726 256.849 84.8235 244.047 78.1626Z" fill="#FBFBFB"/>
<path d="M179.081 201.179C183.747 201.179 191.284 174.476 200.676 165.114C199.3 164.274 197.685 163.914 195.891 164.334C186.558 166.494 182.311 184.917 174.474 185.637C168.612 186.117 165.022 174.476 159.818 172.495C160.655 174.656 161.493 176.636 162.211 178.256C169.689 195.538 173.397 201.179 179.081 201.179Z" fill="#FBFBFB"/>
<path d="M280 102.046C274.616 103.306 271.804 101.566 270.548 96.1649C270.847 97.5451 270.967 98.8053 270.907 99.8854C258.644 75.1022 233.159 58 203.787 58C193.139 58 182.969 60.2803 173.756 64.3008C171.842 63.4607 170.586 61.6005 169.868 58.4801C171.124 63.8808 169.389 66.7011 164.005 67.9613C165.202 67.6613 166.219 67.5412 167.176 67.6013C144.324 80.5029 128.89 104.986 128.89 133.07C128.89 146.091 132.18 158.273 137.983 168.954C136.726 170.575 134.633 171.355 131.522 171.355C137.025 171.355 139.418 173.695 139.418 179.276C139.418 176.875 139.837 175.075 140.854 173.755C154.194 194.458 177.405 208.199 203.787 208.199C209.231 208.199 214.495 207.599 219.64 206.519C220.477 208.199 220.358 210.3 219.4 213C221.315 207.779 224.366 206.399 229.51 208.319C227.297 207.479 225.801 206.459 224.904 205.199C255.952 196.018 278.624 167.214 278.624 133.13C278.624 123.888 276.949 115.067 273.898 106.906C274.496 104.386 276.411 102.886 280 102.046ZM224.366 204.239C223.708 202.619 223.887 200.638 224.784 198.118C222.87 203.339 219.819 204.719 214.674 202.799C216.649 203.519 218.084 204.479 218.982 205.619C214.076 206.639 208.932 207.239 203.727 207.239C177.645 207.239 154.673 193.618 141.512 173.095C142.768 171.955 144.683 171.475 147.255 171.475C141.751 171.475 139.359 169.134 139.359 163.554C139.359 165.414 139.119 166.914 138.521 168.054C133.017 157.553 129.847 145.671 129.847 133.07C129.847 104.866 145.64 80.3229 168.791 67.7813C171.124 68.3814 172.62 70.3616 173.397 73.842C172.141 68.4413 173.876 65.621 179.26 64.3608C177.704 64.7209 176.448 64.8409 175.252 64.6609C183.986 61.0004 193.617 58.9601 203.667 58.9601C233.1 58.9601 258.584 76.3624 270.429 101.446C269.651 103.546 267.737 104.866 264.566 105.646C269.95 104.386 272.762 106.126 274.018 111.527C273.838 110.807 273.719 110.147 273.659 109.487C276.171 116.928 277.488 124.849 277.488 133.07C277.607 166.734 255.114 195.238 224.366 204.239Z" fill="white"/>
<path d="M215.571 22C216.56 26.3686 218.674 29.4469 222.455 30.4C223.998 30.7891 226.859 30.7371 229 30.2331C221.642 31.9844 219.382 35.3888 221.041 42.8348C221.053 42.8895 221.066 42.9446 221.078 43C221.065 42.9447 221.053 42.8897 221.041 42.8348C219.938 38.0792 216.909 35.992 213.507 35.3C212.247 35.0439 209.786 34.8637 208.137 35.2406C208.092 35.2517 208.046 35.2628 208 35.2737C208.045 35.2622 208.091 35.2512 208.137 35.2406C215.431 33.4535 216.94 28.9566 215.571 22Z" fill="#5075F7"/>
<path d="M165.907 216.332C167.307 218.992 169.211 220.62 171.828 220.581C172.896 220.565 174.741 220.035 176.041 219.336C171.576 221.749 170.702 224.348 173.071 228.886C173.088 228.919 173.106 228.953 173.124 228.987C173.106 228.953 173.088 228.92 173.071 228.886C171.53 225.995 169.204 225.169 166.879 225.311C166.018 225.364 164.392 225.674 163.388 226.205C163.361 226.22 163.333 226.235 163.305 226.25C163.332 226.235 163.36 226.22 163.388 226.205C167.805 223.78 168.002 220.603 165.907 216.332Z" fill="#5075F7"/>
<path d="M285.066 172.514C287.948 175.174 291.002 176.345 294.202 175.155C295.509 174.669 297.546 173.211 298.84 171.784C294.403 176.701 294.463 180.279 299.358 184.826C299.394 184.859 299.43 184.892 299.467 184.926C299.43 184.893 299.394 184.859 299.358 184.826C296.2 181.943 292.979 181.942 290.182 183.133C289.146 183.573 287.282 184.665 286.279 185.756C286.252 185.787 286.225 185.818 286.197 185.848C286.224 185.818 286.251 185.787 286.279 185.756C290.652 180.845 289.508 176.852 285.066 172.514Z" fill="#5075F7"/>
<path d="M289.469 156.881C289.005 158.941 289.281 160.679 290.698 161.851C291.276 162.329 292.504 162.887 293.517 163.106C290.031 162.361 288.379 163.352 287.577 166.857C287.571 166.883 287.565 166.909 287.559 166.935C287.565 166.909 287.571 166.883 287.577 166.857C288.071 164.61 287.204 163.108 285.896 162.124C285.412 161.76 284.401 161.184 283.623 161.011C283.601 161.006 283.579 161.002 283.558 160.997C283.579 161.001 283.601 161.006 283.623 161.011C287.089 161.728 288.642 160.119 289.469 156.881Z" fill="#5075F7"/>
<path d="M103.632 137.776C102.558 134.003 102.891 130.75 105.397 128.431C106.421 127.484 108.641 126.324 110.498 125.813C104.108 127.554 100.942 125.886 99.0925 119.467C99.0793 119.42 99.0658 119.372 99.0519 119.324C99.0653 119.372 99.0789 119.42 99.0925 119.467C100.24 123.585 98.7883 126.46 96.4636 128.42C95.6033 129.145 93.7873 130.316 92.3615 130.719C92.3219 130.729 92.2822 130.74 92.2423 130.751C92.2817 130.741 92.3215 130.73 92.3615 130.719C98.7174 129.032 101.764 131.855 103.632 137.776Z" fill="#5075F7"/>
<path d="M119.57 140.899C117.523 140.384 116.096 139.353 115.689 137.561C115.523 136.829 115.58 135.482 115.841 134.478C114.933 137.926 113.304 138.953 109.813 138.087C109.788 138.081 109.762 138.074 109.736 138.068C109.762 138.075 109.788 138.081 109.813 138.087C112.042 138.661 112.992 140.112 113.279 141.723C113.386 142.319 113.443 143.481 113.247 144.254C113.241 144.275 113.236 144.297 113.23 144.318C113.236 144.297 113.242 144.276 113.247 144.254C114.171 140.837 116.307 140.176 119.57 140.899Z" fill="#5075F7"/>
<path d="M120.93 83.9171C119.714 83.6112 118.866 82.9988 118.624 81.9338C118.526 81.4989 118.559 80.6984 118.715 80.1022C118.175 82.1506 117.207 82.7609 115.133 82.2466C115.118 82.2427 115.103 82.2388 115.087 82.2351C115.103 82.239 115.118 82.2428 115.133 82.2466C116.458 82.5872 117.022 83.4492 117.193 84.4065C117.256 84.7608 117.29 85.451 117.173 85.9103C117.17 85.923 117.167 85.9357 117.163 85.9485C117.167 85.9359 117.17 85.9232 117.173 85.9103C117.723 83.8801 118.992 83.4876 120.93 83.9171Z" fill="#5075F7"/>
<path d="M272.93 81.9C271.714 81.5942 270.866 80.9817 270.624 79.9167C270.526 79.4818 270.559 78.6813 270.715 78.0851C270.175 80.1335 269.207 80.7438 267.133 80.2295C267.118 80.2256 267.103 80.2218 267.087 80.218C267.103 80.2219 267.118 80.2257 267.133 80.2295C268.458 80.5701 269.022 81.4321 269.193 82.3894C269.256 82.7437 269.29 83.434 269.173 83.8932C269.17 83.9059 269.167 83.9186 269.163 83.9314C269.167 83.9188 269.17 83.9061 269.173 83.8932C269.723 81.863 270.992 81.4705 272.93 81.9Z" fill="#5075F7"/>
<path d="M229.93 223.9C228.714 223.594 227.866 222.982 227.624 221.917C227.526 221.482 227.559 220.681 227.715 220.085C227.175 222.134 226.207 222.744 224.133 222.23C224.118 222.226 224.103 222.222 224.087 222.218C224.103 222.222 224.118 222.226 224.133 222.23C225.458 222.57 226.022 223.432 226.193 224.389C226.256 224.744 226.29 225.434 226.173 225.893C226.17 225.906 226.167 225.919 226.163 225.931C226.167 225.919 226.17 225.906 226.173 225.893C226.723 223.863 227.992 223.471 229.93 223.9Z" fill="#5075F7"/>
<path d="M197.013 36.7784C196.389 38.7878 196.526 40.5367 197.84 41.8125C198.377 42.3334 199.553 42.9841 200.542 43.282C197.138 42.2663 195.418 43.1203 194.344 46.5393C194.337 46.5645 194.329 46.5898 194.321 46.6152C194.328 46.5898 194.336 46.5645 194.344 46.5393C195.013 44.3455 194.271 42.7849 193.049 41.7042C192.597 41.3043 191.638 40.6529 190.878 40.4189C190.857 40.4127 190.836 40.4065 190.815 40.4001C190.836 40.406 190.857 40.4123 190.878 40.4189C194.265 41.405 195.936 39.9299 197.013 36.7784Z" fill="#5075F7"/>
<path d="M192.87 227.825C192.706 231.991 193.865 235.269 197.036 237.037C198.33 237.759 200.915 238.402 202.962 238.465C195.923 238.267 193.07 240.783 192.768 247.88C192.766 247.932 192.764 247.984 192.761 248.037C192.763 247.984 192.765 247.932 192.768 247.88C192.922 243.337 190.701 240.73 187.808 239.288C186.737 238.754 184.567 237.999 182.993 237.941C182.95 237.94 182.906 237.939 182.862 237.937C182.905 237.938 182.949 237.939 182.993 237.941C189.983 238.091 192.424 234.41 192.87 227.825Z" fill="#5075F7"/>
<path d="M226.938 109.727C226.938 112.907 225.143 115.487 222.93 115.487C220.717 115.487 218.922 112.907 218.922 109.727C218.922 106.546 220.717 103.966 222.93 103.966C225.143 104.026 226.938 106.546 226.938 109.727Z" fill="#5E6874"/>
<path d="M225.861 107.387C225.861 108.467 224.964 109.368 223.887 109.368C222.81 109.368 221.913 108.467 221.913 107.387C221.913 106.307 222.81 105.406 223.887 105.406C224.964 105.406 225.861 106.307 225.861 107.387Z" fill="white"/>
<path d="M193.378 114.527C187.874 112.007 181.413 112.187 176.269 115.547C175.072 116.327 176.209 118.307 177.405 117.467C181.832 114.587 187.455 114.227 192.241 116.447C193.557 117.047 194.694 115.127 193.378 114.527Z" fill="#5E6874"/>
</svg>
