<?xml version="1.0" encoding="UTF-8"?>
<svg width="139px" height="40px" viewBox="0 0 139 40" version="1.1" xmlns="http://www.w3.org/2000/svg" xmlns:xlink="http://www.w3.org/1999/xlink">
    <g stroke="none" stroke-width="1" fill="none" fill-rule="evenodd">
        <g transform="translate(-147.000000, -17.000000)" fill-rule="nonzero">
            <g transform="translate(147.000000, 17.000000)">
                <g>
                    <g transform="translate(0.000000, 0.000000)">
                        <path d="M44.0283333,4.1693 C38.376,-3.6907 28.8226667,1.340595 24.851,4.84285 C26.7801667,4.1693 33.929,1.07113667 38.922,3.49576667 C43.9148333,5.9204 45.2348333,12.7902 44.4821667,16.56185 C43.461,21.6805 40.0566667,32.4566667 39.6028333,40 C41.4183333,30.032 51.9716667,15.2148333 44.0283333,4.1693 Z" id="Path" fill="#0141B4"></path>
                        <path d="M15.3191833,5.38163333 C5.67381667,7.49838333 8.85111667,23.0275 13.61705,36.7671667 C6.35461667,24.5091667 6.68195,13.3289833 8.05676667,9.28796667 C10.43975,2.28343333 17.5886667,1.87933333 20.3121667,4.03461667 C24.3971667,7.26746667 30.9788333,10.5003167 35.4043333,10.7697167 C39.1715,10.9990333 40.9646667,9.01858333 41.6455,8.61448333 C42.3263333,8.21038333 42.7801667,9.01858333 42.2128333,9.6921 C41.6455,10.3656167 38.4681667,14.1372667 34.8368333,14.2719667 C31.0921667,14.2719667 27.6501667,11.6677167 25.8723333,10.2309 C20.993,5.65105 17.9291667,4.80886667 15.3191833,5.38163333 Z" id="Path" fill="#79B9FF"></path>
                        <path d="M25.078,20.4681667 L21.9006667,20.4681667 L21.9006667,26.112 C16.7525,25.8871667 7.3231,24.5691667 0,21.2763333 C4.50101667,23.9478333 8.51786667,27.5888333 21.9006667,28.6583333 L21.9006667,33.9383333 L25.078,33.9383333 L25.078,28.8196667 L28.2553333,28.8196667 L28.2553333,33.9383333 L31.4326667,33.9383333 L31.4326667,28.6583333 C44.8155,27.5888333 48.8323333,23.9478333 53.3333333,21.2763333 C46.0101667,24.5691667 36.5808333,25.8871667 31.4326667,26.112 L31.4326667,20.4681667 L28.2553333,20.4681667 L28.2553333,26.1256667 L25.078,26.1256667 L25.078,20.4681667 Z" id="Path" fill="#3D7DF0"></path>
                    </g>
                    <path d="M71.725,11.35 L72.475,11.325 C74.9583458,11.325 76.9583258,11.7499957 78.475,12.6 C79.9916743,13.4500042 80.75,14.6583255 80.75,16.225 C80.75,17.3916725 80.4583363,18.3249965 79.875,19.025 C79.3749975,19.6416697 78.925002,20.049999 78.525,20.25 L78.275,20.4 C78.5583348,20.4500003 78.9458309,20.6124986 79.4375,20.8875 C79.9291691,21.1625014 80.3333318,21.4624984 80.65,21.7875 C80.9666683,22.1125016 81.258332,22.5833302 81.525,23.2 C81.791668,23.8166698 81.925,24.4999962 81.925,25.25 C81.925,27.2333433 81.091675,28.7416615 79.425,29.775 C77.758325,30.8083385 75.3500158,31.325 72.2,31.325 C69.933322,31.325 68.0958404,30.7750055 66.6875,29.675 C65.2791596,28.5749945 64.575,27.325007 64.575,25.925 C64.575,25.6916655 64.6458326,25.5000008 64.7875,25.35 C64.9291674,25.1999993 65.0958324,25.125 65.2875,25.125 C65.4791676,25.125 65.6249995,25.1749995 65.725,25.275 C65.725,26.3083385 66.0666633,27.2083295 66.75,27.975 C67.4333368,28.7416705 68.341661,29.3083315 69.475,29.675 L69.475,13.325 C68.741663,13.658335 68.1500023,14.0541644 67.7,14.5125 C67.2499978,14.9708356 67.025,15.4083313 67.025,15.825 C67.025,16.2416688 67.0749995,16.5999985 67.175,16.9 C67.0749995,17.100001 66.8500018,17.2 66.5,17.2 C66.1499983,17.2 65.8500013,17.0750012 65.6,16.825 C65.3499988,16.5749987 65.225,16.2416688 65.225,15.825 C65.225,15.0416628 65.6166628,14.2666705 66.4,13.5 C67.1833373,12.7333295 68.208327,12.1583352 69.475,11.775 L69.475,10.825 C69.475,10.3249975 69.5999988,9.94583462 69.85,9.6875 C70.1000013,9.42916537 70.4083315,9.3 70.775,9.3 C71.1416685,9.3 71.458332,9.4166655 71.725,9.65 L71.725,11.35 Z M72.2,30.075 C74.6833458,30.075 76.5416605,29.6833372 77.775,28.9 C79.0083395,28.1166627 79.625,26.9000082 79.625,25.25 C79.625,22.4166525 77.725019,21 73.925,21 C73.7583325,21 73.6166673,20.9250007 73.5,20.775 C73.3833328,20.6249993 73.325,20.4250012 73.325,20.175 C73.325,19.8583317 73.524998,19.7 73.925,19.7 C75.791676,19.7 77.0416635,19.3166705 77.675,18.55 C78.1916693,17.9333302 78.45,17.158338 78.45,16.225 C78.45,15.0416607 77.9041721,14.1375031 76.8125,13.5125 C75.7208279,12.8874969 74.3166753,12.5666667 72.6,12.55 C72.2833318,12.55 72.025001,12.5749997 71.825,12.625 L71.825,30.075 L72.2,30.075 Z M87.5083334,25.75 L87.5083334,29.725 C87.3416659,29.9583345 87.0500022,30.075 86.6333334,30.075 C86.2166647,30.075 85.8833347,29.9458346 85.6333334,29.6875 C85.3833322,29.4291654 85.2583334,29.0500025 85.2583334,28.55 L85.2583334,19.05 C85.4250009,18.8166655 85.7166647,18.7 86.1333334,18.7 C86.5500022,18.7 86.8833322,18.8291654 87.1333334,19.0875 C87.3833347,19.3458346 87.5083334,19.7249975 87.5083334,20.225 L87.5083334,22.125 C88.3416709,20.058323 89.4916594,19.025 90.9583334,19.025 C92.0083387,19.025 92.7749977,19.3041639 93.2583334,19.8625 C93.7416692,20.4208361 93.9833334,21.0833295 93.9833334,21.85 C93.9833334,22.2666688 93.8583347,22.5999987 93.6083334,22.85 C93.3583322,23.1000013 93.1166679,23.225 92.8833334,23.225 C92.4499979,23.225 92.1666674,23.125001 92.0333334,22.925 C92.1333339,22.6749988 92.1833334,22.316669 92.1833334,21.85 C92.1833334,21.383331 92.0250017,20.9583352 91.7083334,20.575 C91.3916652,20.1916648 91.0083357,20 90.5583334,20 C89.7749962,20 89.0708365,20.7124929 88.4458334,22.1375 C87.8208303,23.5625071 87.5083334,24.7666617 87.5083334,25.75 Z M102.591667,19.425 C102.808335,18.9416643 103.154164,18.7 103.629167,18.7 C104.104169,18.7 104.458332,18.8166655 104.691667,19.05 L104.691667,26.225 C104.691667,27.1750047 104.841665,27.8916642 105.141667,28.375 C105.441668,28.8583357 105.849998,29.1 106.366667,29.1 C107.933341,29.1 108.716667,27.4750162 108.716667,24.225 C108.733334,24.1249995 108.858332,24.075 109.091667,24.075 C109.391668,24.075 109.541667,24.5166622 109.541667,25.4 C109.541667,26.8166737 109.237503,27.9499957 108.629167,28.8 C108.02083,29.6500042 107.166672,30.075 106.066667,30.075 C104.383325,30.075 103.26667,29.3333407 102.716667,27.85 C102.399999,28.5333368 101.96667,29.074998 101.416667,29.475 C100.866664,29.875002 100.24167,30.075 99.5416668,30.075 C96.6249856,30.075 95.1666668,28.1666857 95.1666668,24.35 C95.1666668,22.416657 95.6208289,20.9916712 96.5291668,20.075 C97.4375047,19.1583287 98.6416593,18.7 100.141667,18.7 C101.291673,18.7 102.108331,18.9416643 102.591667,19.425 Z M97.8916668,27.425 C98.1250013,28.158337 98.3916653,28.6208324 98.6916668,28.8125 C98.9916683,29.0041676 99.3916643,29.1 99.8916668,29.1 C100.391669,29.1 100.937497,28.7875031 101.529167,28.1625 C102.120836,27.5374969 102.416667,26.725005 102.416667,25.725 L102.416667,22.3 C102.416667,21.5166628 102.212502,20.8833358 101.804167,20.4 C101.395831,19.9166642 100.937503,19.675 100.429167,19.675 C99.9208309,19.675 99.5166683,19.7249995 99.2166668,19.825 C98.9166653,19.9250005 98.6333348,20.1333318 98.3666668,20.45 C97.8166641,21.050003 97.5416668,22.34999 97.5416668,24.35 C97.5416668,25.6666733 97.6583323,26.691663 97.8916668,27.425 Z M119.45,24.875 C119.800002,24.875 119.975,25.1166642 119.975,25.6 C119.975,26.0833358 119.875001,26.5666643 119.675,27.05 C119.474999,27.5333357 119.187502,28.008331 118.8125,28.475 C118.437498,28.941669 117.912504,29.3249985 117.2375,29.625 C116.562497,29.9250015 115.800004,30.075 114.95,30.075 C113.083324,30.075 111.620839,29.6041714 110.5625,28.6625 C109.504162,27.7208286 108.975,26.3375091 108.975,24.5125 C108.975,22.6874909 109.441662,21.2625051 110.375,20.2375 C111.308338,19.2124949 112.499993,18.7 113.95,18.7 C115.000005,18.7 115.766664,18.9791639 116.25,19.5375 C116.733336,20.0958361 116.975,20.7583295 116.975,21.525 C116.975,21.9416687 116.850001,22.2749987 116.6,22.525 C116.349999,22.7750013 116.108335,22.9 115.875,22.9 C115.441665,22.9 115.158334,22.800001 115.025,22.6 C115.125001,22.3499987 115.175,21.991669 115.175,21.525 C115.175,21.058331 115.016668,20.6333353 114.7,20.25 C114.383332,19.8666647 114.000002,19.675 113.55,19.675 C112.766663,19.675 112.204169,20.0583295 111.8625,20.825 C111.520832,21.5916705 111.35,22.7958251 111.35,24.4375 C111.35,26.0791749 111.67083,27.266663 112.3125,28 C112.95417,28.733337 113.849994,29.1 115,29.1 C116.150006,29.1 117.116663,28.7458369 117.9,28.0375 C118.683337,27.3291631 119.075,26.3250065 119.075,25.025 C119.091667,24.9249995 119.216666,24.875 119.45,24.875 Z M129.808334,24.375 C130.158335,24.375 130.333334,24.641664 130.333334,25.175 C130.333334,26.4083395 129.904171,27.5333282 129.045834,28.55 C128.187496,29.5666717 126.883342,30.075 125.133334,30.075 C123.383325,30.075 121.979172,29.6041714 120.920834,28.6625 C119.862495,27.7208286 119.333334,26.3375091 119.333334,24.5125 C119.333334,22.6874909 119.799996,21.2625051 120.733334,20.2375 C121.666672,19.2124949 122.858326,18.7 124.308334,18.7 C125.358339,18.7 126.124998,18.9791639 126.608334,19.5375 C127.091669,20.0958361 127.333334,20.7583295 127.333334,21.525 C127.333334,22.7750062 126.812505,23.8124959 125.770834,24.6375 C124.729162,25.4625041 123.400008,25.875 121.783334,25.875 C121.933334,26.941672 122.32083,27.7458306 122.945834,28.2875 C123.570837,28.8291694 124.395828,29.1 125.420834,29.1 C126.445839,29.1 127.370829,28.7125039 128.195834,27.9375 C129.020838,27.1624961 129.433334,26.0250075 129.433334,24.525 C129.45,24.4249995 129.574999,24.375 129.808334,24.375 Z M121.708334,24.725 L121.708334,24.95 C122.741672,24.816666 123.637496,24.4916693 124.395834,23.975 C125.154171,23.4583308 125.533334,22.6916717 125.533334,21.675 C125.533334,21.0249967 125.391668,20.5291684 125.108334,20.1875 C124.824999,19.8458316 124.425003,19.675 123.908334,19.675 C123.124996,19.675 122.562502,20.0583295 122.220834,20.825 C121.879165,21.5916705 121.708334,22.8916575 121.708334,24.725 Z M134.316667,24.975 C133.649997,24.7416655 132.987504,24.4958346 132.329167,24.2375 C131.67083,23.9791654 131.116669,23.6083358 130.666667,23.125 C130.216665,22.6416642 129.991667,22.0208371 129.991667,21.2625 C129.991667,20.5041629 130.341664,19.8875024 131.041667,19.4125 C131.741671,18.9374976 132.762494,18.7 134.104167,18.7 C135.44584,18.7 136.49583,18.933331 137.254167,19.4 C138.012504,19.866669 138.391667,20.4083302 138.391667,21.025 C138.391667,21.3250015 138.279168,21.5666657 138.054167,21.75 C137.829166,21.9333343 137.608335,22.025 137.391667,22.025 C136.974998,22.025 136.700001,21.925001 136.566667,21.725 C136.666668,21.6083328 136.716667,21.3791684 136.716667,21.0375 C136.716667,20.6958316 136.458336,20.3833348 135.941667,20.1 C135.424998,19.8166652 134.850004,19.675 134.216667,19.675 C133.583331,19.675 133.058336,19.7916655 132.641667,20.025 C132.224998,20.2583345 132.016667,20.6124976 132.016667,21.0875 C132.016667,21.5625024 132.254165,21.9749982 132.729167,22.325 C133.204169,22.6750017 133.779164,22.9666655 134.454167,23.2 C135.12917,23.4333345 135.804164,23.683332 136.479167,23.95 C137.15417,24.216668 137.729165,24.5958309 138.204167,25.0875 C138.679169,25.5791691 138.916667,26.1833297 138.916667,26.9 C138.916667,27.966672 138.454172,28.7624974 137.529167,29.2875 C136.604162,29.8125026 135.387508,30.075 133.879167,30.075 C132.370826,30.075 131.145838,29.6375044 130.204167,28.7625 C129.262496,27.8874956 128.791667,26.8000065 128.791667,25.5 C128.791667,25.033331 128.883333,24.666668 129.066667,24.4 C129.250001,24.133332 129.458333,24 129.691667,24 C130.125003,24 130.375,24.0749993 130.441667,24.225 L130.491667,24.3 C130.391667,24.5500013 130.341667,24.8583315 130.341667,25.225 C130.341667,26.3416723 130.666664,27.266663 131.316667,28 C131.96667,28.733337 132.866661,29.1 134.016667,29.1 C135.783343,29.1 136.675,28.4750062 136.691667,27.225 C136.691667,26.2749953 135.900008,25.5250027 134.316667,24.975 Z" id="Braces" fill="#0141B4"></path>
                </g>
            </g>
        </g>
    </g>
</svg>