<svg width="32" height="24" viewBox="0 0 32 24" fill="none" xmlns="http://www.w3.org/2000/svg">
<path d="M26.417 2.50158C23.0256 -2.21442 17.2936 0.804357 14.9106 2.90571C16.0681 2.50158 20.3574 0.642682 23.3532 2.09746C26.3489 3.55224 27.1409 7.67412 26.6893 9.93711C26.0766 13.0083 24.034 19.474 23.7617 24C24.851 18.0192 31.183 9.1289 26.417 2.50158Z" fill="#0141B4"/>
<path d="M9.19151 3.22898C3.40429 4.49903 5.31067 13.8165 8.17023 22.0603C3.81277 14.7055 4.00917 7.99739 4.83406 5.57278C6.26385 1.37006 10.5532 1.1276 12.1873 2.42077C14.6383 4.36048 18.5873 6.30019 21.2426 6.46183C23.5029 6.59942 24.5788 5.41115 24.9873 5.16869C25.3958 4.92623 25.6681 5.41115 25.3277 5.81526C24.9873 6.21937 23.0809 8.48236 20.9021 8.56318C18.6553 8.56318 16.5901 7.00063 15.5234 6.13854C12.5958 3.39063 10.7575 2.88532 9.19151 3.22898Z" fill="#79B9FF"/>
<path d="M15.0468 12.2809H13.1404V15.6672C10.0515 15.5323 4.39386 14.7415 0 12.7658C2.70061 14.3687 5.11072 16.5533 13.1404 17.195V20.363H15.0468V17.2918H16.9532V20.363H18.8596V17.195C26.8893 16.5533 29.2994 14.3687 32 12.7658C27.6061 14.7415 21.9485 15.5323 18.8596 15.6672V12.2809H16.9532V15.6754H15.0468V12.2809Z" fill="#3D7DF0"/>
</svg>
