<?xml version="1.0" encoding="UTF-8"?>
<svg width="22px" height="19px" viewBox="0 0 22 19" version="1.1" xmlns="http://www.w3.org/2000/svg" xmlns:xlink="http://www.w3.org/1999/xlink">
    <g stroke="none" stroke-width="1" fill="none" fill-rule="evenodd" stroke-linecap="round" stroke-linejoin="round">
        <g transform="translate(-1145.000000, -30.000000)" stroke="#000000">
            <path d="M1161.6,47.8 C1161.3,47.8 1160.9,47.8 1160.6,47.7 C1159.3,47.5 1158,47.2 1156.8,46.6 C1154.9,45.8 1153.2,44.7 1151.7,43.4 C1149.8,41.8 1148.2,40 1147,37.7 C1146.6,36.9 1146.3,36.1 1146.2,35.2 C1146,34.3 1146.2,33.4 1146.8,32.7 C1147.3,32.1 1147.8,31.6 1148.3,31 C1149.1,30.2 1149.5,30.5 1150.4,31.2 C1151.4,31.9 1152.3,32.7 1153.3,33.5 C1154,34.1 1154.6,34.5 1153.6,35.9 C1153.2,36.4 1153.3,36.3 1152.9,36.9 C1152.9,36.9 1152.3,37.7 1152.2,37.8 C1153.7,39.9 1155.7,41.5 1158.1,42.5 C1158.1,42.5 1159.8,40.4 1160,40.3 C1160.9,39.7 1161.3,40 1161.9,40.4 C1162.9,41.2 1163.9,42 1164.9,42.8 C1165.6,43.4 1165.9,44 1165.4,44.7 C1164.9,45.4 1164.6,46 1164,46.7 C1163.6,47.2 1163.1,47.5 1162.5,47.6 C1162.5,47.6 1162.4,47.6 1162.4,47.7 L1161.6,47.8 Z"></path>
        </g>
    </g>
</svg>